# xmcd CD database file
#
# Track frame offsets:
#	150
#	17868
#	40288
#	58834
#	80324
#	100117
#	110067
#	127506
#	155569
#	183664
#	194770
#	219659
#	234759
#	245027
#
# Disc length: 3576 seconds
#
# Revision: 0
# Processed by: cddbd v1.5.2PL0 Copyright (c) Steve Scherf et al.
# Submitted via: CDex 1.50beta10
#
DISCID=c10df60e
DTITLE=Marcelo Escrich Silent Trio - Charlie Haden Songbook
DYEAR=2016
DGENRE=Jazz
TTITLE0=Nice Eyes
TTITLE1=There in a Dream
TTITLE2=Taney County
TTITLE3=First Song
TTITLE4=Our Spanish Love Song 
TTITLE5=Salmo Nº1 para Charlie Haden
TTITLE6=In the Moment 
TTITLE7=Here´s Looking at You/Always Say Goodbye
TTITLE8=Blues in Motion/Bay City/Blues for Pat
TTITLE9=Salmo Nº2 para Charlie Haden
TTITLE10=Waltz for Ruth 
TTITLE11=Out of Focus 
TTITLE12=Salmo Nº3 para recordar a Mauro Urriza
TTITLE13=Nightfall 
EXTD=YEAR: 2016
EXTT0=
EXTT1=
EXTT2=
EXTT3=
EXTT4=
EXTT5=
EXTT6=
EXTT7=
EXTT8=
EXTT9=
EXTT10=
EXTT11=
EXTT12=
EXTT13=
PLAYORDER=
